<?xml version="1.0" standalone="no"?><!DOCTYPE svg PUBLIC "-//W3C//DTD SVG 1.1//EN" "http://www.w3.org/Graphics/SVG/1.1/DTD/svg11.dtd"><svg class="icon" width="48px" height="48.00px" viewBox="0 0 1024 1024" version="1.1" xmlns="http://www.w3.org/2000/svg"><path d="M704 640C704 675.328 675.328 704 640 704 604.672 704 576 675.328 576 640L576 384C576 348.672 604.672 320 640 320 675.328 320 704 348.672 704 384L704 640ZM448 640C448 675.328 419.328 704 384 704 348.672 704 320 675.328 320 640L320 384C320 348.672 348.672 320 384 320 419.328 320 448 348.672 448 384L448 640ZM512 0C229.248 0 0 229.248 0 512 0 794.752 229.248 1024 512 1024 794.752 1024 1024 794.752 1024 512 1024 229.248 794.752 0 512 0L512 0Z" fill="#ffd426" /></svg>